# xmcd
#
# Track frame offsets: 
#        150
#        21417
#        39705
#        60881
#        80961
#        97754
#        116957
#        134992
#        149816
#        171641
#
# Disc length: 2588 seconds
#
# Revision: 3
# Processed by: cddbd v1.4PL0 Copyright (c) Steve Scherf et al.
# Submitted via: ExactAudioCopy v0.95a3
#
DISCID=9f0a1a0a
DTITLE=Eva Cassidy - Songbird
DYEAR=1900
DGENRE=Country
TTITLE0=Fields Of Gold
TTITLE1=Wade In The Water
TTITLE2=Autumn Leaves
TTITLE3=Wayfaring Stranger
TTITLE4=Songbird
TTITLE5=Time Is A Healer
TTITLE6=I Know You By Heart
TTITLE7=People Get Ready
TTITLE8=Oh Had I A Golden Thread
TTITLE9=Over The Rainbow
EXTD=
EXTT0=
EXTT1=
EXTT2=
EXTT3=
EXTT4=
EXTT5=
EXTT6=
EXTT7=
EXTT8=
EXTT9=
PLAYORDER=
